<svg xmlns="http://www.w3.org/2000/svg" viewBox="0 0 512 512"><title>Contact_Number</title><g id="Contact_Number" data-name="Contact Number"><g id="Contact_Number-2" data-name="Contact Number"><path d="M255.9865,73.8247c-100.5993,0-182.1708,81.5625-182.1708,182.18,0,100.6,81.5715,182.1708,182.1708,182.1708,100.6173,0,182.1978-81.5706,182.1978-182.1708C438.1843,155.3872,356.6038,73.8247,255.9865,73.8247Zm74.04,105.17V361.3387a1.4,1.4,0,0,1-1.4,1.4H169.0319a2.7988,2.7988,0,0,1-2.7988-2.7988V156.5887a2.8009,2.8009,0,0,1,2.8008-2.8008H328.6256a1.4,1.4,0,0,1,1.4,1.4Zm25.2071,0v171.14A12.609,12.609,0,0,1,342.63,362.7391h-3.41a25.0257,25.0257,0,0,0,3.41-12.6036V166.3915a25.0507,25.0507,0,0,0-3.41-12.6036h3.41a12.609,12.609,0,0,1,12.6036,12.6036Z"/><path d="M287.0914,274.8487s-4.7466-5.6952-10.0107-1.7667c-3.92,2.9268-10.96,9.4482-12.6567,11.03,0,0-11.7684-6.2757-18.72-12.006-10.3185-8.4906-17.2179-18.9585-20.84-24.9084L222.1663,242.1c.94-1.02,8.1567-8.7363,11.268-12.9195,3.9195-5.256-1.7577-10.0026-1.7577-10.0026s-16.0136-16.0137-19.6614-19.1952a7.84,7.84,0,0,0-7.8489-1.4058c-7.6635,4.9563-15.6177,9.2637-16.0929,29.97-.0081,19.4067,14.7042,39.402,30.6306,54.8883,15.9426,17.4987,37.837,35.0244,59.0094,35.0064,20.7162-.4743,25.0227-8.42,29.98-16.0929a7.8541,7.8541,0,0,0-1.4157-7.848C303.0961,290.8534,287.0914,274.8487,287.0914,274.8487Z"/></g></g></svg>